<svg id="Capa_1" data-name="Capa 1" xmlns="http://www.w3.org/2000/svg" viewBox="0 0 85.04 19.77"><defs><style>.cls-1{fill:#e43425;}.cls-2{fill:#f49724;}</style></defs><polygon class="cls-1" points="21.22 14.73 21.22 1.64 28.96 1.64 28.96 3.28 22.82 3.28 22.82 7.31 28.33 7.31 28.33 8.95 22.82 8.95 22.82 13.05 29.39 13.05 29.39 14.69 21.22 14.69 21.22 14.73"/><polygon class="cls-1" points="37.52 14.73 34.86 11.26 32.2 14.73 30.33 14.73 33.96 10.08 30.13 5.28 32.24 5.28 34.86 8.87 37.52 5.28 39.59 5.28 35.95 10.08 39.39 14.73 37.52 14.73"/><path class="cls-1" d="M44.57,14.1v6.45H43V10.9a5,5,0,0,1,4.81-5.08c3,0,5.19,1.88,5.19,5a4.89,4.89,0,0,1-4.84,5.08,4.1,4.1,0,0,1-3.56-1.76Zm6.72-3.32c0-2.11-1.36-3.36-3.79-3.24-1.17,0-3,.9-2.81,3.91A3.21,3.21,0,0,0,48,14.26C49.89,14.26,51.29,13.17,51.29,10.78Z" transform="translate(-2.6 -0.78)"/><path class="cls-1" d="M54.34,15.51V6.05h1.6v1a4.21,4.21,0,0,1,3.29-1.21V7.58c-.2,0-2.11-.28-3.29,2.23v5.74h-1.6Z" transform="translate(-2.6 -0.78)"/><path class="cls-1" d="M59.66,10.78a4.73,4.73,0,0,1,4.65-5c3.36,0,4.61,2.23,4.61,5.08v.78h-7.5a3,3,0,0,0,3.2,2.7,3.51,3.51,0,0,0,2.62-1.14l1.05,1.1a5.28,5.28,0,0,1-3.75,1.56,4.85,4.85,0,0,1-4.88-5.12Zm4.53-3.36a2.89,2.89,0,0,0-2.77,2.78h5.82A2.79,2.79,0,0,0,64.19,7.42Z" transform="translate(-2.6 -0.78)"/><path class="cls-1" d="M69.74,14.18l1.17-1a5.26,5.26,0,0,0,.67.66,1.92,1.92,0,0,0,.89.47c1,.27,2.86.2,3-1.21.08-.78-.5-1.21-1.17-1.49-.86-.31-1.8-.43-2.66-.82a2.4,2.4,0,0,1-1.6-2.26c0-2.86,4.07-3.33,5.9-2,.08.08,1,.9.94.9l-1.17.94a2.65,2.65,0,0,0-2.39-1.05c-.62,0-1.48.27-1.64.93-.23.94.82,1.29,1.53,1.49a9.38,9.38,0,0,1,2.77.9A2.85,2.85,0,0,1,77,14a3.25,3.25,0,0,1-3.13,1.83A4.86,4.86,0,0,1,70,14.38C69.93,14.38,69.74,14.18,69.74,14.18Z" transform="translate(-2.6 -0.78)"/><path class="cls-1" d="M78,14.18l1.17-1a5.1,5.1,0,0,0,.66.66,2,2,0,0,0,.9.47c1,.27,2.85.2,3-1.21.08-.78-.51-1.21-1.17-1.49-.86-.31-1.8-.43-2.66-.82a2.39,2.39,0,0,1-1.6-2.26c0-2.86,4.06-3.33,5.9-2,.08.08,1,.9.94.9L84,8.32a2.63,2.63,0,0,0-2.38-1.05c-.62,0-1.48.27-1.64.93-.24.94.82,1.29,1.52,1.49a9.44,9.44,0,0,1,2.78.9,2.86,2.86,0,0,1,1,3.4,3.25,3.25,0,0,1-3.13,1.83,4.83,4.83,0,0,1-3.83-1.44C78.18,14.38,78,14.18,78,14.18Z" transform="translate(-2.6 -0.78)"/><polygon class="cls-1" points="83.01 5.28 83.01 4.26 82.66 4.26 82.66 4.06 83.59 4.06 83.59 4.26 83.24 4.26 83.24 5.28 83.01 5.28"/><polygon class="cls-1" points="84.77 5.28 84.77 4.34 84.41 5.28 84.34 5.28 83.98 4.34 83.98 5.28 83.79 5.28 83.79 4.06 84.1 4.06 84.41 4.88 84.73 4.06 85.04 4.06 85.04 5.28 84.77 5.28"/><path class="cls-2" d="M13,15.51l-1.18-3.13H5.45L4.28,15.51H2.6L7.68,2.42H9.52l5,13.09ZM8.54,4.3,6.16,10.78h5Z" transform="translate(-2.6 -0.78)"/><rect class="cls-2" x="13.01" y="1.64" width="1.64" height="13.09"/><rect class="cls-2" x="17.12" y="5.47" width="1.64" height="9.26"/><path class="cls-2" d="M22.92,3.24V3.08A2.39,2.39,0,0,1,20.61.78h-.23a2.38,2.38,0,0,1-2.31,2.3v.16a2.39,2.39,0,0,1,2.31,2.31h.23A2.4,2.4,0,0,1,22.92,3.24Z" transform="translate(-2.6 -0.78)"/></svg>